<svg xmlns="http://www.w3.org/2000/svg" xmlns:xlink="http://www.w3.org/1999/xlink" style="margin:auto;background:none;display:block;" width="307px" height="307px" viewBox="0 0 100 100" preserveAspectRatio="xMidYMid">
    <defs>
        <clipPath id="progress-reyu121kxai-cp" x="0" y="0" width="100" height="100">
            <rect x="0" y="0" width="0" height="100">
                <animate attributeName="width" repeatCount="indefinite" dur="1s" values="0;100;100" keyTimes="0;0.5;1"></animate>
                <animate attributeName="x" repeatCount="indefinite" dur="1s" values="0;0;100" keyTimes="0;0.5;1"></animate>
            </rect>
        </clipPath>
    </defs>
    <path fill="none" stroke="#FF7D00" stroke-width="2" d="M17 34L83 34A16 16 0 0 1 99 50L99 50A16 16 0 0 1 83 66L17 66A16 16 0 0 1 1 50L1 50A16 16 0 0 1 17 34 Z"></path>
    <path fill="#15616D" clip-path="url(#progress-reyu121kxai-cp)" d="M17 39.1L83 39.1A10.899999999999999 10.899999999999999 0 0 1 93.9 50L93.9 50A10.899999999999999 10.899999999999999 0 0 1 83 60.9L17 60.9A10.899999999999999 10.899999999999999 0 0 1 6.1000000000000005 50L6.1000000000000005 50A10.899999999999999 10.899999999999999 0 0 1 17 39.1 Z"></path>
</svg>